<?xml version="1.0" standalone="no"?><!DOCTYPE svg PUBLIC "-//W3C//DTD SVG 1.1//EN" "http://www.w3.org/Graphics/SVG/1.1/DTD/svg11.dtd"><svg t="1571127267891" class="icon" viewBox="0 0 1024 1024" version="1.1" xmlns="http://www.w3.org/2000/svg" p-id="1128" xmlns:xlink="http://www.w3.org/1999/xlink" width="200" height="200"><defs><style type="text/css"></style></defs><path d="M345.7024 258.184533V196.949333a26.282667 26.282667 0 0 1 26.282667-26.248533h280.064a26.282667 26.282667 0 0 1 26.248533 26.282667v61.2352h148.7872a26.282667 26.282667 0 1 1 0 52.5312H196.9152a26.282667 26.282667 0 1 1 0-52.5312h148.821333z m52.5312 0h227.5328V223.163733h-227.5328v35.0208z m297.5744 542.651734V406.971733a26.282667 26.282667 0 0 1 52.497067 0v420.113067a26.282667 26.282667 0 0 1-26.282667 26.248533H301.9776a26.282667 26.282667 0 0 1-26.282667-26.282666V407.005867a26.282667 26.282667 0 0 1 52.565334 0v393.864533h367.581866z m-280.098133-358.843734a26.282667 26.282667 0 1 1 52.5312 0v280.064a26.282667 26.282667 0 0 1-52.5312 0v-280.064z m140.049066 0a26.282667 26.282667 0 0 1 52.5312 0v280.064a26.282667 26.282667 0 1 1-52.5312 0v-280.064z" fill="#B6B6B6" p-id="1129"></path></svg>